<svg viewBox="0 0 100 100" xmlns="http://www.w3.org/2000/svg"><symbol viewBox="0 0 45 45" id="icon-bubble"><title>icon-bubble</title> <g> <path fill="none" stroke="#000000" stroke-width="3" stroke-miterlimit="10" d="M40.7,20.4c0-9.8-7.9-17.7-17.7-17.7
		c-9.8,0-17.7,7.9-17.7,17.7c0,9.2,7,16.7,15.9,17.6l-0.1,0.1l13.3,3.6l-1.7-6.4C37.5,32.1,40.7,26.6,40.7,20.4z"/> <circle cx="13.6" cy="20" r="3"/> <circle cx="22.6" cy="20" r="3"/> <circle cx="32.6" cy="20" r="3"/> </g> </symbol><symbol viewBox="0 0 45 45" id="icon-error"><title>icon-error</title> <g> <circle fill="none" stroke="#000000" stroke-width="3" stroke-miterlimit="10" cx="22" cy="22.5" r="19.5"/> <line fill="none" stroke="#000000" stroke-width="3" stroke-miterlimit="10" x1="14.7" y1="30" x2="29.6" y2="15.1"/> <line fill="none" stroke="#000000" stroke-width="3" stroke-miterlimit="10" x1="29.6" y1="30" x2="14.7" y2="15.1"/> </g> </symbol><symbol viewBox="0 0 100 100" id="icon-facebook"><title>icon-facebook</title> <path d="M92,3H8C5.239,3,3,5.239,3,8v84c0,2.761,2.239,5,5,5h84c2.761,0,5-2.239,5-5V8C97,5.239,94.761,3,92,3z M69.93,24.364
	l-7.226,0.003c-5.664,0-6.761,2.692-6.761,6.643v8.711h13.511L69.45,53.365H55.944v35.012H41.852V53.365H30.07V39.721h11.782V29.659
	c0-11.677,7.133-18.036,17.549-18.036L69.93,11.64V24.364z"/> </symbol><symbol viewBox="0 0 100 100" id="icon-google"><title>icon-google</title> <path fill-rule="evenodd" clip-rule="evenodd" d="M92,3H8C5.239,3,3,5.239,3,8v84c0,2.761,2.239,5,5,5h84c2.761,0,5-2.239,5-5V8
	C97,5.239,94.761,3,92,3z M34.088,88.553c-14.553,0-21.571-6.935-21.571-14.381c0-3.618,1.803-8.743,7.724-12.264
	c6.219-3.822,14.652-4.322,19.17-4.633C38,55.465,36.4,53.556,36.4,50.441c0-1.707,0.502-2.713,0.999-3.922
	c-1.105,0.103-2.204,0.202-3.208,0.202c-10.634,0-16.654-7.95-16.654-15.792c0-4.62,2.104-9.752,6.418-13.473
	c5.724-4.726,13.541-6.008,18.966-6.008h19.771l-6.526,4.099h-6.217c2.307,1.909,7.117,5.931,7.117,13.578
	c0,7.436-4.209,10.964-8.421,14.28c-1.306,1.304-2.813,2.712-2.813,4.929c0,2.207,1.508,3.413,2.608,4.325l3.616,2.809
	c4.415,3.72,8.428,7.138,8.428,14.083C60.483,79.005,51.346,88.553,34.088,88.553z M87.483,48.77H77.395v10.117H72.43V48.77H62.391
	V43.75H72.43V33.695h4.965V43.75h10.088V48.77z"/> <path fill-rule="evenodd" clip-rule="evenodd" d="M48.24,33.749c0-7.243-4.317-18.503-12.64-18.503c-2.616,0-5.42,1.307-7.029,3.32
	c-1.707,2.114-2.204,4.821-2.204,7.443c0,6.734,3.911,17.894,12.544,17.894c2.507,0,5.207-1.2,6.821-2.811
	C48.04,38.771,48.24,35.56,48.24,33.749z"/> <path fill-rule="evenodd" clip-rule="evenodd" d="M42.82,60.195c-0.8-0.101-1.302-0.101-2.305-0.101
	c-0.904,0-6.324,0.197-10.537,1.615c-2.208,0.799-8.627,3.214-8.627,10.353c0,7.141,6.922,12.277,17.658,12.277
	c9.635,0,14.755-4.637,14.755-10.863C53.764,68.334,50.451,65.627,42.82,60.195z"/> </symbol><symbol viewBox="0 0 45 45" id="icon-grid"><title>icon-grid</title> <g> <rect x="4.5" y="5.5" fill="none" stroke="#000000" stroke-width="3" stroke-miterlimit="10" width="8" height="8"/> <rect x="18.5" y="5.5" fill="none" stroke="#000000" stroke-width="3" stroke-miterlimit="10" width="8" height="8"/> <rect x="32.5" y="5.5" fill="none" stroke="#000000" stroke-width="3" stroke-miterlimit="10" width="8" height="8"/> <rect x="4.5" y="19.5" fill="none" stroke="#000000" stroke-width="3" stroke-miterlimit="10" width="8" height="8"/> <rect x="18.5" y="19.5" fill="none" stroke="#000000" stroke-width="3" stroke-miterlimit="10" width="8" height="8"/> <rect x="32.5" y="19.5" fill="none" stroke="#000000" stroke-width="3" stroke-miterlimit="10" width="8" height="8"/> <rect x="4.5" y="32.5" fill="none" stroke="#000000" stroke-width="3" stroke-miterlimit="10" width="8" height="8"/> <rect x="18.5" y="32.5" fill="none" stroke="#000000" stroke-width="3" stroke-miterlimit="10" width="8" height="8"/> <rect x="32.5" y="32.5" fill="none" stroke="#000000" stroke-width="3" stroke-miterlimit="10" width="8" height="8"/> </g> </symbol><symbol viewBox="0 0 45 45" id="icon-link"><title>icon-link</title> <g> <path fill="none" stroke="#000000" stroke-width="3" d="M21.9,19l-2.5-2.5c-0.8-0.8-0.8-2.1,0-2.8L30.1,3.1c0.8-0.8,2.1-0.8,2.8,0
		l9.2,9.2c0.8,0.8,0.8,2.1,0,2.8L31.5,25.7c-0.8,0.8-2.1,0.8-2.8,0l-2.5-2.5"/> </g> <g> <path fill="none" stroke="#000000" stroke-width="3" d="M23.3,26.1l2.5,2.5c0.8,0.8,0.8,2.1,0,2.8L15.2,42c-0.8,0.8-2.1,0.8-2.8,0
		l-9.2-9.2c-0.8-0.8-0.8-2.1,0-2.8l10.6-10.6c0.8-0.8,2.1-0.8,2.8,0l2.5,2.5"/> </g> <line fill="none" stroke="#000000" stroke-width="3" x1="30.4" y1="14" x2="14.2" y2="30.3"/> </symbol><symbol viewBox="0 0 60 60" id="icon-menu"><title>icon-menu</title> <g> <rect x="10" y="42.2" width="40" height="3.6"/> <rect x="10" y="28.2" width="40" height="3.6"/> <rect x="10" y="14.2" width="40" height="3.6"/> </g> </symbol><symbol viewBox="0 0 45 45" id="icon-minus"><title>icon-minus</title> <g> <circle fill="none" stroke="#000000" stroke-width="3" stroke-miterlimit="10" cx="18.1" cy="19.5" r="12.8"/> <line fill="none" stroke="#000000" stroke-width="3" stroke-miterlimit="10" x1="38.8" y1="39" x2="26.8" y2="26.9"/> <line fill="none" stroke="#000000" stroke-width="3" stroke-miterlimit="10" x1="14" y1="19.5" x2="23" y2="19.5"/> </g> </symbol><symbol viewBox="0 0 45 45" id="icon-ok"><title>icon-ok</title> <circle fill="none" stroke="#000000" stroke-width="3" stroke-miterlimit="10" cx="22" cy="22.5" r="19.5"/> <polyline fill="none" stroke="#000000" stroke-width="3" stroke-miterlimit="10" points="13.6,24 20.6,30 29.6,14 "/> </symbol><symbol viewBox="0 0 45 45" id="icon-pin"><title>icon-pin</title> <g> <path fill="none" stroke="#000000" stroke-width="3" stroke-miterlimit="10" d="M37.6,18c0-8.3-6.7-15-15-15s-15,6.7-15,15
		s9,25,15,25S37.6,26.3,37.6,18z"/> <circle fill="none" stroke="#000000" stroke-width="3" stroke-miterlimit="10" cx="22.6" cy="17" r="7"/> </g> </symbol><symbol viewBox="0 0 45 45" id="icon-plus"><title>icon-plus</title> <g> <circle fill="none" stroke="#000000" stroke-width="3" stroke-miterlimit="10" cx="18.1" cy="19.5" r="12.8"/> <line fill="none" stroke="#000000" stroke-width="3" stroke-miterlimit="10" x1="38.8" y1="39" x2="26.8" y2="26.9"/> <line fill="none" stroke="#000000" stroke-width="3" stroke-miterlimit="10" x1="18.5" y1="15" x2="18.5" y2="24"/> <line fill="none" stroke="#000000" stroke-width="3" stroke-miterlimit="10" x1="14" y1="19.5" x2="23" y2="19.5"/> </g> </symbol><symbol viewBox="0 0 45 45" id="icon-quote"><title>icon-quote</title> <g> <path fill="none" stroke="#000000" stroke-width="3" d="M19.7,13.1c-2.5,1-4.5,2.3-6.1,3.9c-1.6,1.5-2.4,2.9-2.4,4.1
		c0,0.6,0.9,1.1,2.8,1.8c0.6,0.2,1,0.4,1.3,0.5c1.1,0.4,2,1.1,2.6,2.1c0.6,1,1,2.2,1,3.6c0,2.3-0.6,4.1-1.9,5.5
		c-1.3,1.4-3,2.1-5.1,2.1c-2.3,0-4.2-0.9-5.7-2.6C4.8,32.2,4,30,4,27.3c0-4.2,1.3-7.9,3.9-11.1c2.6-3.2,6.3-5.4,10.9-6.8L19.7,13.1z
		 M40,13.1c-2.5,1-4.5,2.3-6.1,3.9c-1.6,1.5-2.4,2.9-2.4,4.1c0,0.6,0.9,1.1,2.8,1.8c0.6,0.2,1,0.4,1.3,0.5c1.1,0.4,2,1.1,2.6,2.1
		c0.6,1,1,2.2,1,3.6c0,2.3-0.6,4.1-1.9,5.5c-1.3,1.4-3,2.1-5,2.1c-2.3,0-4.2-0.9-5.7-2.6c-1.5-1.7-2.2-3.9-2.2-6.6
		c0-4.2,1.3-7.9,3.9-11.1c2.6-3.2,6.3-5.4,11-6.8L40,13.1z"/> </g> </symbol><symbol viewBox="0 0 45 45" id="icon-scroll"><title>icon-scroll</title> <g> <g> <path fill="none" stroke="#000000" stroke-width="3" stroke-miterlimit="10" d="M35.5,31.5c0,5.5-4.5,10-10,10h-6
			c-5.5,0-10-4.5-10-10v-17c0-5.5,4.5-10,10-10h6c5.5,0,10,4.5,10,10V31.5z"/> </g> <line fill="none" stroke="#000000" stroke-width="3" stroke-miterlimit="10" x1="22.5" y1="9" x2="22.5" y2="18"/> </g> </symbol><symbol viewBox="0 0 45 45" id="icon-search"><title>icon-search</title> <g> <circle fill="none" stroke="#000000" stroke-width="3" stroke-miterlimit="10" cx="17.6" cy="19.5" r="12.4"/> <line fill="none" stroke="#000000" stroke-width="3" stroke-miterlimit="10" x1="37.8" y1="39" x2="25.8" y2="26.9"/> </g> </symbol><symbol viewBox="0 0 45 45" id="icon-tag"><title>icon-tag</title> <g> <polygon fill="none" stroke="#000000" stroke-width="3" points="3.1,3.3 3.5,22.1 23.6,42.2 41.3,24.5 21.2,4.4 	"/> <circle fill="none" stroke="#000000" stroke-width="3" cx="17.3" cy="18.2" r="4"/> </g> </symbol><symbol viewBox="0 0 45 45" id="icon-warning"><title>icon-warning</title> <g> <g> <path fill="none" stroke="#000000" stroke-width="3" stroke-miterlimit="10" d="M4.3,40.5c-1.1,0-1.6-0.8-1-1.7l17.9-31
			c0.5-1,1.4-0.9,2,0l17.9,31c0.6,1,0.1,1.7-1,1.7H4.3z"/> </g> <line fill="none" stroke="#000000" stroke-width="3" stroke-miterlimit="10" x1="22.5" y1="18" x2="22.5" y2="30"/> <line fill="none" stroke="#000000" stroke-width="3" stroke-miterlimit="10" x1="22.5" y1="32" x2="22.5" y2="35"/> </g> </symbol><symbol viewBox="0 0 2606 629.3" id="logo-rafaeldilari"><title>logo-rafaeldilari</title> <g> <path display="none" fill="none" stroke="#000000" stroke-miterlimit="10" d="M2594.2,11.8h-1045l-355.4,605.7h1400.4V11.8z
		 M1549.2,11.8l-355.4,605.7"/> <path display="none" fill="none" stroke="#000000" stroke-width="2" stroke-miterlimit="10" d="M1549.2,11.8H11.8v605.7h1182"/> <g> <path d="M147.6,156.9c0-3.3,2.4-6.1,6.1-6.1H271c57.7,0,105.4,43.5,105.4,101.2c0,47.7-33.1,86-78,98.8l69,122.4
			c2.4,3.8,1.4,8.5-3.3,8.5h-14.7c-3.3,0-5.2-1.4-6.6-4.3l-68.5-123.8c-6.1,0.5-11.3,0.5-17.5,0.5h-87v121.5c0,3.3-2.8,6.1-7.6,6.1
			h-8.5c-3.3,0-6.1-2.8-6.1-6.1V156.9z M270,334.1c45.4,0,83.7-35.5,83.7-82.2c0-44.9-38.3-79.4-84.1-79.4h-99.3v161.7H270z"/> <path d="M481.4,359.7c21.7,0,42.5,6.6,47.7,8.5c0-41.6-4.3-62.4-41.6-62.4c-31.2,0-52.5,11.3-56.7,12.8c-3.8,1.4-6.1-0.5-7.1-3.8
			l-2.4-5.7c-1.4-4.3,0.5-6.1,2.8-7.1c1.4-0.9,25.5-14.2,64.8-14.2c57.7,0,60,34.5,60,82.7v104.9c0,3.3-2.8,6.1-6.1,6.1h-5.7
			c-3.3,0-4.7-1.9-5.7-5.2l-1.9-17c-12.3,11.3-35.4,26.9-65.7,26.9c-35,0-61.9-24.1-61.9-62.9C401.9,387.1,431.7,359.7,481.4,359.7z
			 M466.2,467.9c28.8,0,53.9-17.5,62.9-29.3v-52c-6.1-2.8-25.1-9.9-47.7-9.9c-35.9,0-60,18.4-60,46.3
			C421.3,450.4,440.2,467.9,466.2,467.9z"/> <path d="M618.9,311h-28.4c-4.3,0-6.1-3.3-6.1-6.1v-6.1c0-3.3,2.8-6.1,6.1-6.1h28.4v-64.8c0-55.8,30.3-81.8,71.4-81.8
			c24.1,0,45.8,11.3,52.9,20.3c2.4,2.8,2.4,5.7,0.9,7.6l-4.7,6.6c-1.9,2.8-5.2,3.3-8,0.5c-7.1-6.6-23.6-16.1-41.1-16.1
			c-29.8,0-50.6,19.4-50.6,62.9v64.8h70c3.8,0,6.1,2.4,6.1,5.7v7.1c0,3.3-1.9,5.7-6.1,5.7h-70v164.5c0,3.3-2.8,6.1-6.1,6.1h-8.5
			c-3.3,0-6.1-2.8-6.1-6.1V311z"/> <path d="M819.3,359.7c21.7,0,42.5,6.6,47.7,8.5c0-41.6-4.3-62.4-41.6-62.4c-31.2,0-52.5,11.3-56.7,12.8c-3.8,1.4-6.1-0.5-7.1-3.8
			l-2.4-5.7c-1.4-4.3,0.5-6.1,2.8-7.1c1.4-0.9,25.5-14.2,64.8-14.2c57.7,0,60,34.5,60,82.7v104.9c0,3.3-2.8,6.1-6.1,6.1h-5.7
			c-3.3,0-4.7-1.9-5.7-5.2l-1.9-17c-12.3,11.3-35.5,26.9-65.7,26.9c-35,0-61.9-24.1-61.9-62.9C739.9,387.1,769.7,359.7,819.3,359.7z
			 M804.2,467.9c28.8,0,53.9-17.5,62.9-29.3v-52c-6.1-2.8-25.1-9.9-47.7-9.9c-35.9,0-60,18.4-60,46.3
			C759.3,450.4,778.2,467.9,804.2,467.9z"/> <path d="M1024.5,287.8c49.6,0,85.6,36.4,85.6,86.5c0,7.6,0,18.4-7.1,18.4H952.2c1.9,40.6,31.2,74.7,73.7,74.7
			c25.1,0,44.4-9.9,55.8-17.5c4.3-2.8,6.1-3.3,8.5,0l4.7,6.6c1.4,1.9,0.9,4.7-1.9,7.6c-9.5,9.5-39.2,22.2-68.5,22.2
			c-57.7,0-93.1-44.4-93.1-99.7C931.4,332.7,966.9,287.8,1024.5,287.8z M1089.3,375.7c0-36.9-22.2-69-64.8-69
			c-41.6,0-69.5,30.3-71.8,69H1089.3z"/> <path d="M1154.1,156.9c0-3.3,2.8-6.1,6.1-6.1h8.5c3.3,0,6.1,2.8,6.1,6.1v318.6c0,3.8-1.9,6.1-6.1,6.1h-9.5c-3.3,0-5.2-2.8-5.2-6.1
			V156.9z"/> </g> <g> <polygon display="none" fill="none" points="1455.7,171.1 1387.1,171.1 1387.1,288 		"/> <path d="M1387.1,461.3h79.9c82.7,0,146.5-62.9,146.5-145.6c0-81.8-63.8-144.6-146.5-144.6h-11.3L1387.1,288V461.3z"/> <path d="M1549.2,11.8l-81.5,138.9h3.1c91.7,0,166.4,74.2,166.4,165c0,92.2-74.7,165.9-166.4,165.9h-100.2c-2.8,0-5.7-2.8-5.7-6.1
			V325.9l-171.1,291.7h1400.4V11.8H1549.2z M1707.2,475.5c0,3.8-1.9,6.1-6.2,6.1h-9.5c-3.3,0-5.2-2.8-5.2-6.1V298.7
			c0-3.3,2.8-6.1,6.1-6.1h8.5c3.3,0,6.2,2.8,6.2,6.1V475.5z M1696.8,199.9c-9,0-16.1-7.1-16.1-15.6c0-9,7.1-16.5,16.1-16.5
			s16.1,7.6,16.1,16.5C1712.8,192.8,1705.7,199.9,1696.8,199.9z M2074.9,476.4c0,3.3-2.8,5.2-6.1,5.2h-166.9c-3.3,0-6.1-2.8-6.1-6.1
			V156.9c0-3.3,2.8-6.1,6.1-6.1h10.4c2.8,0,5.7,2.8,5.7,6.1v304.9h150.8c5.7,0,6.1,2.8,6.1,6.1V476.4z M2244.6,475.5
			c0,3.3-2.8,6.1-6.1,6.1h-5.7c-3.3,0-4.7-1.9-5.7-5.2l-1.9-17c-12.3,11.3-35.4,26.9-65.7,26.9c-35,0-61.9-24.1-61.9-62.9
			c0-36.4,29.8-63.8,79.4-63.8c21.7,0,42.5,6.6,47.7,8.5c0-41.6-4.2-62.4-41.6-62.4c-31.2,0-52.5,11.3-56.7,12.8
			c-3.8,1.4-6.1-0.5-7.1-3.8l-2.4-5.7c-1.4-4.3,0.5-6.1,2.8-7.1c1.4-0.9,25.5-14.2,64.7-14.2c57.7,0,60,34.5,60,82.7V475.5z
			 M2404,302l-3.8,9.5c-1.4,3.3-4.3,3.8-7.6,2.4c-2.4-0.9-11.8-5.7-24.6-5.7c-36.9,0-54.8,29.8-56.3,32.6v134.7
			c0,3.8-1.9,6.1-6.1,6.1h-9.5c-3.3,0-5.2-2.8-5.2-6.1V298.7c0-3.3,2.8-6.1,6.2-6.1h5.7c2.8,0,5.2,1.9,5.7,5.2l1.9,19.4
			c4.7-6.6,23.6-29.3,59.1-29.3c15.1,0,25.5,4.3,29.3,5.7C2403,294.9,2405.4,298.2,2404,302z M2460.2,475.5c0,3.8-1.9,6.1-6.1,6.1
			h-9.5c-3.3,0-5.2-2.8-5.2-6.1V298.7c0-3.3,2.8-6.1,6.2-6.1h8.5c3.3,0,6.1,2.8,6.1,6.1V475.5z M2449.8,199.9
			c-9,0-16.1-7.1-16.1-15.6c0-9,7.1-16.5,16.1-16.5c9,0,16.1,7.6,16.1,16.5C2465.9,192.8,2458.8,199.9,2449.8,199.9z"/> <path d="M2117,423c0,27.4,18.9,44.9,44.9,44.9c28.8,0,53.9-17.5,62.9-29.3v-52c-6.1-2.8-25-9.9-47.7-9.9
			C2141.1,376.7,2117,395.1,2117,423z"/> </g> <path d="M2606,629.3H0V0h2606V629.3z M23.6,605.7h2558.7V23.6H23.6V605.7z"/> </g> </symbol></svg>