<svg xmlns="http://www.w3.org/2000/svg" width="31.806" height="31.806" viewBox="0 0 31.806 31.806"><path d="M1.286 12.465c-.685.263-1.17.88-1.268 1.606-.096.73.213 1.45.806 1.88l6.492 4.725 23.058-18.14L9.984 22.62l8.876 6.46c.564.41 1.293.532 1.964.33.67-.205 1.204-.714 1.444-1.37l9.494-25.985c.096-.264.028-.56-.172-.756-.2-.198-.494-.26-.758-.16L1.286 12.466z"/><path d="M5.774 22.246l.055.3 1.26 6.89c.093.512.435.94.91 1.148.477.206 1.026.162 1.462-.12 1.755-1.13 4.047-2.633 3.985-2.72l-7.673-5.498z"/></svg>