<svg xmlns="http://www.w3.org/2000/svg" viewBox="0 0 45 45"><path fill="none" stroke="#000" stroke-width="3" d="M21.9 19l-2.5-2.5c-.8-.8-.8-2.1 0-2.8L30.1 3.1c.8-.8 2.1-.8 2.8 0l9.2 9.2c.8.8.8 2.1 0 2.8L31.5 25.7c-.8.8-2.1.8-2.8 0l-2.5-2.5"/><path fill="none" stroke="#000" stroke-width="3" d="M23.3 26.1l2.5 2.5c.8.8.8 2.1 0 2.8L15.2 42c-.8.8-2.1.8-2.8 0l-9.2-9.2c-.8-.8-.8-2.1 0-2.8l10.6-10.6c.8-.8 2.1-.8 2.8 0l2.5 2.5"/><path fill="none" stroke="#000" stroke-width="3" d="M30.4 14L14.2 30.3"/></svg>