<svg xmlns="http://www.w3.org/2000/svg" width="128" height="128" viewBox="0 0 128 128"><g fill="none" stroke="#fefefe" stroke-width="3" stroke-linecap="round" stroke-miterlimit="10"><path d="M88 68s-7 5-24 5-29-4-29-7 12-10 29-10 29 6 29 9-1 19-8 26c-6 6-13 10-21 10s-15-3-21-10-8-19-8-25"/><path d="M45.358 93.495C37.898 95.605 35 98.647 35 101c0 4 12 10 29 10s27.125-5.375 29-10"/><path d="M92.548 71S102 71 102 77s-3.534 9-13.534 9"/><path d="M59.157 62.17s3.145-2.014 1.752-5.166c-1.29-2.917-2.34-2.588-3.584-5.333-1.308-2.887 1.75-5.416 1.75-5.416"/><path d="M67.114 62.296s5.878-4.92 3.96-9.42c-1.893-4.448-4.242-4.85-5.457-8.705-1.303-4.13 3.458-8.582 3.458-8.582"/></g></svg>