<svg height="128" viewBox="0 0 128 128" width="128" xmlns="http://www.w3.org/2000/svg"><path d="M64.032 13.87c-27.642 0-50.13 22.488-50.13 50.13.003 27.643 22.49 50.13 50.132 50.13 27.64 0 50.126-22.487 50.126-50.13 0-27.642-22.487-50.13-50.128-50.13zm.002 96.26c-25.434 0-46.13-20.692-46.13-46.13 0-25.437 20.692-46.13 46.128-46.13 25.435 0 46.128 20.693 46.128 46.13 0 25.438-20.692 46.13-46.126 46.13zM78.54 68.92L66.033 79.694V43.942c0-1.104-.896-2-2-2s-2 .896-2 2v35.752L49.527 68.918c-.837-.72-2.1-.627-2.82.21s-.628 2.1.21 2.82L64.033 86.7l17.116-14.75c.837-.72.93-1.983.21-2.82-.72-.837-1.984-.93-2.82-.21z"/></svg>