<svg xmlns="http://www.w3.org/2000/svg" viewBox="0 0 45 45"><path fill="none" stroke="#f5f5f5" stroke-width="3" d="M19.7 13.1c-2.5 1-4.5 2.3-6.1 3.9-1.6 1.5-2.4 2.9-2.4 4.1 0 .6.9 1.1 2.8 1.8.6.2 1 .4 1.3.5 1.1.4 2 1.1 2.6 2.1.6 1 1 2.2 1 3.6 0 2.3-.6 4.1-1.9 5.5-1.3 1.4-3 2.1-5.1 2.1-2.3 0-4.2-.9-5.7-2.6C4.8 32.2 4 30 4 27.3c0-4.2 1.3-7.9 3.9-11.1 2.6-3.2 6.3-5.4 10.9-6.8l.9 3.7zm20.3 0c-2.5 1-4.5 2.3-6.1 3.9-1.6 1.5-2.4 2.9-2.4 4.1 0 .6.9 1.1 2.8 1.8.6.2 1 .4 1.3.5 1.1.4 2 1.1 2.6 2.1.6 1 1 2.2 1 3.6 0 2.3-.6 4.1-1.9 5.5-1.3 1.4-3 2.1-5 2.1-2.3 0-4.2-.9-5.7-2.6-1.5-1.7-2.2-3.9-2.2-6.6 0-4.2 1.3-7.9 3.9-11.1 2.6-3.2 6.3-5.4 11-6.8l.7 3.5z"/></svg>