<svg xmlns="http://www.w3.org/2000/svg" viewBox="0 0 2606 629.3"><path d="M147.6 156.9c0-3.3 2.4-6.1 6.1-6.1H271c57.7 0 105.4 43.5 105.4 101.2 0 47.7-33.1 86-78 98.8l69 122.4c2.4 3.8 1.4 8.5-3.3 8.5h-14.7c-3.3 0-5.2-1.4-6.6-4.3l-68.5-123.8c-6.1.5-11.3.5-17.5.5h-87v121.5c0 3.3-2.8 6.1-7.6 6.1h-8.5c-3.3 0-6.1-2.8-6.1-6.1V156.9zM270 334.1c45.4 0 83.7-35.5 83.7-82.2 0-44.9-38.3-79.4-84.1-79.4h-99.3v161.7H270z"/><path d="M481.4 359.7c21.7 0 42.5 6.6 47.7 8.5 0-41.6-4.3-62.4-41.6-62.4-31.2 0-52.5 11.3-56.7 12.8-3.8 1.4-6.1-.5-7.1-3.8l-2.4-5.7c-1.4-4.3.5-6.1 2.8-7.1 1.4-.9 25.5-14.2 64.8-14.2 57.7 0 60 34.5 60 82.7v104.9c0 3.3-2.8 6.1-6.1 6.1h-5.7c-3.3 0-4.7-1.9-5.7-5.2l-1.9-17c-12.3 11.3-35.4 26.9-65.7 26.9-35 0-61.9-24.1-61.9-62.9 0-36.2 29.8-63.6 79.5-63.6zm-15.2 108.2c28.8 0 53.9-17.5 62.9-29.3v-52c-6.1-2.8-25.1-9.9-47.7-9.9-35.9 0-60 18.4-60 46.3-.1 27.4 18.8 44.9 44.8 44.9z"/><path d="M618.9 311h-28.4c-4.3 0-6.1-3.3-6.1-6.1v-6.1c0-3.3 2.8-6.1 6.1-6.1h28.4v-64.8c0-55.8 30.3-81.8 71.4-81.8 24.1 0 45.8 11.3 52.9 20.3 2.4 2.8 2.4 5.7.9 7.6l-4.7 6.6c-1.9 2.8-5.2 3.3-8 .5-7.1-6.6-23.6-16.1-41.1-16.1-29.8 0-50.6 19.4-50.6 62.9v64.8h70c3.8 0 6.1 2.4 6.1 5.7v7.1c0 3.3-1.9 5.7-6.1 5.7h-70v164.5c0 3.3-2.8 6.1-6.1 6.1h-8.5c-3.3 0-6.1-2.8-6.1-6.1V311z"/><path d="M819.3 359.7c21.7 0 42.5 6.6 47.7 8.5 0-41.6-4.3-62.4-41.6-62.4-31.2 0-52.5 11.3-56.7 12.8-3.8 1.4-6.1-.5-7.1-3.8l-2.4-5.7c-1.4-4.3.5-6.1 2.8-7.1 1.4-.9 25.5-14.2 64.8-14.2 57.7 0 60 34.5 60 82.7v104.9c0 3.3-2.8 6.1-6.1 6.1H875c-3.3 0-4.7-1.9-5.7-5.2l-1.9-17c-12.3 11.3-35.5 26.9-65.7 26.9-35 0-61.9-24.1-61.9-62.9.1-36.2 29.9-63.6 79.5-63.6zm-15.1 108.2c28.8 0 53.9-17.5 62.9-29.3v-52c-6.1-2.8-25.1-9.9-47.7-9.9-35.9 0-60 18.4-60 46.3-.1 27.4 18.8 44.9 44.8 44.9z"/><path d="M1024.5 287.8c49.6 0 85.6 36.4 85.6 86.5 0 7.6 0 18.4-7.1 18.4H952.2c1.9 40.6 31.2 74.7 73.7 74.7 25.1 0 44.4-9.9 55.8-17.5 4.3-2.8 6.1-3.3 8.5 0l4.7 6.6c1.4 1.9.9 4.7-1.9 7.6-9.5 9.5-39.2 22.2-68.5 22.2-57.7 0-93.1-44.4-93.1-99.7 0-53.9 35.5-98.8 93.1-98.8zm64.8 87.9c0-36.9-22.2-69-64.8-69-41.6 0-69.5 30.3-71.8 69h136.6z"/><path d="M1154.1 156.9c0-3.3 2.8-6.1 6.1-6.1h8.5c3.3 0 6.1 2.8 6.1 6.1v318.6c0 3.8-1.9 6.1-6.1 6.1h-9.5c-3.3 0-5.2-2.8-5.2-6.1V156.9z"/><g><path d="M1387.1 461.3h79.9c82.7 0 146.5-62.9 146.5-145.6 0-81.8-63.8-144.6-146.5-144.6h-11.3L1387.1 288v173.3z"/><path d="M1549.2 11.8l-81.5 138.9h3.1c91.7 0 166.4 74.2 166.4 165 0 92.2-74.7 165.9-166.4 165.9h-100.2c-2.8 0-5.7-2.8-5.7-6.1V325.9l-171.1 291.7h1400.4V11.8h-1045zm158 463.7c0 3.8-1.9 6.1-6.2 6.1h-9.5c-3.3 0-5.2-2.8-5.2-6.1V298.7c0-3.3 2.8-6.1 6.1-6.1h8.5c3.3 0 6.2 2.8 6.2 6.1v176.8zm-10.4-275.6c-9 0-16.1-7.1-16.1-15.6 0-9 7.1-16.5 16.1-16.5s16.1 7.6 16.1 16.5c-.1 8.5-7.2 15.6-16.1 15.6zm378.1 276.5c0 3.3-2.8 5.2-6.1 5.2h-166.9c-3.3 0-6.1-2.8-6.1-6.1V156.9c0-3.3 2.8-6.1 6.1-6.1h10.4c2.8 0 5.7 2.8 5.7 6.1v304.9h150.8c5.7 0 6.1 2.8 6.1 6.1v8.5zm169.7-.9c0 3.3-2.8 6.1-6.1 6.1h-5.7c-3.3 0-4.7-1.9-5.7-5.2l-1.9-17c-12.3 11.3-35.4 26.9-65.7 26.9-35 0-61.9-24.1-61.9-62.9 0-36.4 29.8-63.8 79.4-63.8 21.7 0 42.5 6.6 47.7 8.5 0-41.6-4.2-62.4-41.6-62.4-31.2 0-52.5 11.3-56.7 12.8-3.8 1.4-6.1-.5-7.1-3.8l-2.4-5.7c-1.4-4.3.5-6.1 2.8-7.1 1.4-.9 25.5-14.2 64.7-14.2 57.7 0 60 34.5 60 82.7v105.1zM2404 302l-3.8 9.5c-1.4 3.3-4.3 3.8-7.6 2.4-2.4-.9-11.8-5.7-24.6-5.7-36.9 0-54.8 29.8-56.3 32.6v134.7c0 3.8-1.9 6.1-6.1 6.1h-9.5c-3.3 0-5.2-2.8-5.2-6.1V298.7c0-3.3 2.8-6.1 6.2-6.1h5.7c2.8 0 5.2 1.9 5.7 5.2l1.9 19.4c4.7-6.6 23.6-29.3 59.1-29.3 15.1 0 25.5 4.3 29.3 5.7 4.2 1.3 6.6 4.6 5.2 8.4zm56.2 173.5c0 3.8-1.9 6.1-6.1 6.1h-9.5c-3.3 0-5.2-2.8-5.2-6.1V298.7c0-3.3 2.8-6.1 6.2-6.1h8.5c3.3 0 6.1 2.8 6.1 6.1v176.8zm-10.4-275.6c-9 0-16.1-7.1-16.1-15.6 0-9 7.1-16.5 16.1-16.5 9 0 16.1 7.6 16.1 16.5 0 8.5-7.1 15.6-16.1 15.6z"/><path d="M2117 423c0 27.4 18.9 44.9 44.9 44.9 28.8 0 53.9-17.5 62.9-29.3v-52c-6.1-2.8-25-9.9-47.7-9.9-36 0-60.1 18.4-60.1 46.3z"/></g><path d="M2606 629.3H0V0h2606v629.3zM23.6 605.7h2558.7V23.6H23.6v582.1z"/></svg>